{"asset":{"generator":"3D Builder","version":"2.0"},"scene":0,"scenes":[{"nodes":[0]}],"nodes":[{"mesh":0,"matrix":[0.99999994039535522,0,0,0,0,0.99999785423278809,-4.7683613502158551E-7,0,0,4.65008383798704E-7,0.99999785423278809,0,-0.028502756729722023,0.023089203983545303,-0.10780941694974899,1]}],"meshes":[{"primitives":[{"attributes":{"POSITION":0,"COLOR_0":1},"mode":4,"indices":2}]}],"accessors":[{"bufferView":0,"byteOffset":0,"count":19999,"componentType":5126,"type":"VEC3","min":[-0.010342143476009369,-0.016369178891181946,0],"max":[0.010342143476009369,0.016369178891181946,0.022782528772950172]},{"bufferView":1,"byteOffset":0,"count":19999,"componentType":5121,"type":"VEC4","normalized":true},{"bufferView":2,"byteOffset":0,"count":119982,"componentType":5125,"type":"SCALAR"}],"bufferViews":[{"buffer":0,"byteOffset":0,"byteLength":239988,"byteStride":12,"target":34962},{"buffer":0,"byteOffset":239988,"byteLength":79996,"byteStride":4,"target":34962},{"buffer":0,"byteOffset":319984,"byteLength":479928,"target":34963}],"buffers":[{"byteLength":799912,"uri":"savio.bin"}]}