{"asset":{"generator":"3D Builder","version":"2.0"},"scene":0,"scenes":[{"nodes":[0]}],"nodes":[{"mesh":0,"matrix":[0.99999994039535522,0,0,0,0,0.99256259202957153,-0.12173110246658325,0,0,0.12173154950141907,0.99256253242492676,0,-0.040725588798522949,0.010004579089581966,-0.11523226648569107,1]}],"meshes":[{"primitives":[{"attributes":{"POSITION":0},"mode":4,"indices":1,"material":0}]}],"materials":[{"name":"Metallic","pbrMetallicRoughness":{"baseColorFactor":[0.45078584551811218,0.11953843384981155,0.056128494441509247,1],"metallicFactor":0,"roughnessFactor":0.58000004291534424},"alphaMode":"OPAQUE"}],"accessors":[{"bufferView":0,"byteOffset":0,"count":19999,"componentType":5126,"type":"VEC3","min":[-0.010342143476009369,-0.016369178891181946,0],"max":[0.010342143476009369,0.016369178891181946,0.022782528772950172]},{"bufferView":1,"byteOffset":0,"count":119982,"componentType":5125,"type":"SCALAR"}],"bufferViews":[{"buffer":0,"byteOffset":0,"byteLength":239988,"byteStride":12,"target":34962},{"buffer":0,"byteOffset":239988,"byteLength":479928,"target":34963}],"buffers":[{"byteLength":719916,"uri":"savio.bin"}]}